<?xml version="1.0" encoding="UTF-8" standalone="no"?>
<!DOCTYPE svg PUBLIC "-//W3C//DTD SVG 1.1//EN"
 "http://www.w3.org/Graphics/SVG/1.1/DTD/svg11.dtd">
<!-- Generated by graphviz version 2.47.0 (20210316.0004)
 -->
<!-- Title: dependencies Pages: 1 -->
<svg width="504pt" height="211pt"
 viewBox="0.00 0.00 504.00 211.00" xmlns="http://www.w3.org/2000/svg" xmlns:xlink="http://www.w3.org/1999/xlink">
<g id="graph0" class="graph" transform="scale(1 1) rotate(0) translate(4 207)">
<title>dependencies</title>
<polygon fill="white" stroke="transparent" points="-4,4 -4,-207 500,-207 500,4 -4,4"/>
<text text-anchor="start" x="227.01" y="-42.4" font-family="sans-serif" font-weight="bold" font-size="14.00">Legend</text>
<polygon fill="#ffffb3" stroke="transparent" points="14,-10 14,-30 34,-30 34,-10 14,-10"/>
<text text-anchor="start" x="37.63" y="-15.4" font-family="sans-serif" font-size="14.00"> &#160;Declarations</text>
<polygon fill="#8dd3c7" stroke="transparent" points="127,-10 127,-30 147,-30 147,-10 127,-10"/>
<text text-anchor="start" x="150.73" y="-15.4" font-family="sans-serif" font-size="14.00"> &#160;Module</text>
<polygon fill="#80b1d3" stroke="transparent" points="213,-10 213,-30 233,-30 233,-10 213,-10"/>
<text text-anchor="start" x="236.78" y="-15.4" font-family="sans-serif" font-size="14.00"> &#160;Bootstrap</text>
<polygon fill="#fdb462" stroke="transparent" points="310,-10 310,-30 330,-30 330,-10 310,-10"/>
<text text-anchor="start" x="333.67" y="-15.4" font-family="sans-serif" font-size="14.00"> &#160;Providers</text>
<polygon fill="#fb8072" stroke="transparent" points="406,-10 406,-30 426,-30 426,-10 406,-10"/>
<text text-anchor="start" x="429.73" y="-15.4" font-family="sans-serif" font-size="14.00"> &#160;Exports</text>
<g id="clust1" class="cluster">
<title>cluster_AppModule</title>
<polygon fill="none" stroke="black" stroke-dasharray="1,5" points="55,-70 55,-195 441,-195 441,-70 55,-70"/>
</g>
<g id="clust3" class="cluster">
<title>cluster_AppModule_imports</title>
<polygon fill="none" stroke="black" points="63,-78 63,-130 433,-130 433,-78 63,-78"/>
</g>
<!-- AuthModule -->
<g id="node1" class="node">
<title>AuthModule</title>
<polygon fill="#8dd3c7" stroke="black" points="424.55,-122 421.55,-126 400.55,-126 397.55,-122 337.45,-122 337.45,-86 424.55,-86 424.55,-122"/>
<text text-anchor="middle" x="381" y="-99.8" font-family="Times,serif" font-size="14.00">AuthModule</text>
</g>
<!-- AppModule -->
<g id="node4" class="node">
<title>AppModule</title>
<polygon fill="#8dd3c7" stroke="black" points="291.66,-187 288.66,-191 267.66,-191 264.66,-187 208.34,-187 208.34,-151 291.66,-151 291.66,-187"/>
<text text-anchor="middle" x="250" y="-164.8" font-family="Times,serif" font-size="14.00">AppModule</text>
</g>
<!-- AuthModule&#45;&gt;AppModule -->
<g id="edge1" class="edge">
<title>AuthModule&#45;&gt;AppModule</title>
<path fill="none" stroke="black" d="M381,-122.11C381,-141.34 381,-169 381,-169 381,-169 301.81,-169 301.81,-169"/>
<polygon fill="black" stroke="black" points="301.81,-165.5 291.81,-169 301.81,-172.5 301.81,-165.5"/>
</g>
<!-- ConfigurationModule -->
<g id="node2" class="node">
<title>ConfigurationModule</title>
<polygon fill="#8dd3c7" stroke="black" points="319.09,-122 316.09,-126 295.09,-126 292.09,-122 180.91,-122 180.91,-86 319.09,-86 319.09,-122"/>
<text text-anchor="middle" x="250" y="-99.8" font-family="Times,serif" font-size="14.00">ConfigurationModule</text>
</g>
<!-- ConfigurationModule&#45;&gt;AppModule -->
<g id="edge2" class="edge">
<title>ConfigurationModule&#45;&gt;AppModule</title>
<path fill="none" stroke="black" d="M250,-122.11C250,-122.11 250,-140.99 250,-140.99"/>
<polygon fill="black" stroke="black" points="246.5,-140.99 250,-150.99 253.5,-140.99 246.5,-140.99"/>
</g>
<!-- UsersModule -->
<g id="node3" class="node">
<title>UsersModule</title>
<polygon fill="#8dd3c7" stroke="black" points="162.92,-122 159.92,-126 138.92,-126 135.92,-122 71.08,-122 71.08,-86 162.92,-86 162.92,-122"/>
<text text-anchor="middle" x="117" y="-99.8" font-family="Times,serif" font-size="14.00">UsersModule</text>
</g>
<!-- UsersModule&#45;&gt;AppModule -->
<g id="edge3" class="edge">
<title>UsersModule&#45;&gt;AppModule</title>
<path fill="none" stroke="black" d="M117,-122.11C117,-141.34 117,-169 117,-169 117,-169 198.28,-169 198.28,-169"/>
<polygon fill="black" stroke="black" points="198.28,-172.5 208.28,-169 198.28,-165.5 198.28,-172.5"/>
</g>
</g>
</svg>
