<?xml version="1.0" encoding="UTF-8" standalone="no"?>
<!DOCTYPE svg PUBLIC "-//W3C//DTD SVG 1.1//EN"
 "http://www.w3.org/Graphics/SVG/1.1/DTD/svg11.dtd">
<!-- Generated by graphviz version 2.47.0 (20210316.0004)
 -->
<!-- Title: dependencies Pages: 1 -->
<svg width="1272pt" height="352pt"
 viewBox="0.00 0.00 1272.00 352.00" xmlns="http://www.w3.org/2000/svg" xmlns:xlink="http://www.w3.org/1999/xlink">
<g id="graph0" class="graph" transform="scale(1 1) rotate(0) translate(4 348)">
<title>dependencies</title>
<polygon fill="white" stroke="transparent" points="-4,4 -4,-348 1268,-348 1268,4 -4,4"/>
<text text-anchor="start" x="611.01" y="-42.4" font-family="sans-serif" font-weight="bold" font-size="14.00">Legend</text>
<polygon fill="#ffffb3" stroke="transparent" points="398,-10 398,-30 418,-30 418,-10 398,-10"/>
<text text-anchor="start" x="421.63" y="-15.4" font-family="sans-serif" font-size="14.00"> &#160;Declarations</text>
<polygon fill="#8dd3c7" stroke="transparent" points="511,-10 511,-30 531,-30 531,-10 511,-10"/>
<text text-anchor="start" x="534.73" y="-15.4" font-family="sans-serif" font-size="14.00"> &#160;Module</text>
<polygon fill="#80b1d3" stroke="transparent" points="597,-10 597,-30 617,-30 617,-10 597,-10"/>
<text text-anchor="start" x="620.78" y="-15.4" font-family="sans-serif" font-size="14.00"> &#160;Bootstrap</text>
<polygon fill="#fdb462" stroke="transparent" points="694,-10 694,-30 714,-30 714,-10 694,-10"/>
<text text-anchor="start" x="717.67" y="-15.4" font-family="sans-serif" font-size="14.00"> &#160;Providers</text>
<polygon fill="#fb8072" stroke="transparent" points="790,-10 790,-30 810,-30 810,-10 790,-10"/>
<text text-anchor="start" x="813.73" y="-15.4" font-family="sans-serif" font-size="14.00"> &#160;Exports</text>
<g id="clust1" class="cluster">
<title>cluster_AppModule</title>
<polygon fill="none" stroke="black" stroke-dasharray="1,5" points="290,-70 290,-336 460,-336 460,-70 290,-70"/>
</g>
<g id="clust3" class="cluster">
<title>cluster_AppModule_imports</title>
<polygon fill="none" stroke="black" points="298,-78 298,-271 452,-271 452,-78 298,-78"/>
</g>
<g id="clust7" class="cluster">
<title>cluster_AuthModule</title>
<polygon fill="none" stroke="black" stroke-dasharray="1,5" points="860,-135 860,-203 1256,-203 1256,-135 860,-135"/>
</g>
<g id="clust10" class="cluster">
<title>cluster_AuthModule_exports</title>
<polygon fill="none" stroke="black" points="1142,-143 1142,-195 1248,-195 1248,-143 1142,-143"/>
</g>
<g id="clust12" class="cluster">
<title>cluster_AuthModule_providers</title>
<polygon fill="none" stroke="black" points="868,-143 868,-195 1134,-195 1134,-143 868,-143"/>
</g>
<g id="clust13" class="cluster">
<title>cluster_ConfigurationModule</title>
<polygon fill="none" stroke="black" stroke-dasharray="1,5" points="468,-135 468,-203 852,-203 852,-135 468,-135"/>
</g>
<g id="clust16" class="cluster">
<title>cluster_ConfigurationModule_exports</title>
<polygon fill="none" stroke="black" points="688,-143 688,-195 844,-195 844,-143 688,-143"/>
</g>
<g id="clust18" class="cluster">
<title>cluster_ConfigurationModule_providers</title>
<polygon fill="none" stroke="black" points="476,-143 476,-195 680,-195 680,-143 476,-143"/>
</g>
<g id="clust19" class="cluster">
<title>cluster_UsersModule</title>
<polygon fill="none" stroke="black" stroke-dasharray="1,5" points="8,-211 8,-279 282,-279 282,-211 8,-211"/>
</g>
<g id="clust22" class="cluster">
<title>cluster_UsersModule_exports</title>
<polygon fill="none" stroke="black" points="164,-219 164,-271 274,-271 274,-219 164,-219"/>
</g>
<g id="clust24" class="cluster">
<title>cluster_UsersModule_providers</title>
<polygon fill="none" stroke="black" points="16,-219 16,-271 156,-271 156,-219 16,-219"/>
</g>
<!-- AuthModule -->
<g id="node1" class="node">
<title>AuthModule</title>
<polygon fill="#8dd3c7" stroke="black" points="443.55,-263 440.55,-267 419.55,-267 416.55,-263 356.45,-263 356.45,-227 443.55,-227 443.55,-263"/>
<text text-anchor="middle" x="400" y="-240.8" font-family="Times,serif" font-size="14.00">AuthModule</text>
</g>
<!-- AppModule -->
<g id="node4" class="node">
<title>AppModule</title>
<polygon fill="#8dd3c7" stroke="black" points="381.66,-328 378.66,-332 357.66,-332 354.66,-328 298.34,-328 298.34,-292 381.66,-292 381.66,-328"/>
<text text-anchor="middle" x="340" y="-305.8" font-family="Times,serif" font-size="14.00">AppModule</text>
</g>
<!-- AuthModule&#45;&gt;AppModule -->
<g id="edge1" class="edge">
<title>AuthModule&#45;&gt;AppModule</title>
<path fill="none" stroke="black" d="M369.03,-263.11C369.03,-263.11 369.03,-281.99 369.03,-281.99"/>
<polygon fill="black" stroke="black" points="365.53,-281.99 369.03,-291.99 372.53,-281.99 365.53,-281.99"/>
</g>
<!-- AuthService  -->
<g id="node5" class="node">
<title>AuthService </title>
<polygon fill="#fb8072" stroke="black" points="1239.98,-187 1150.02,-187 1150.02,-151 1239.98,-151 1239.98,-187"/>
<text text-anchor="middle" x="1195" y="-164.8" font-family="Times,serif" font-size="14.00">AuthService </text>
</g>
<!-- AuthModule&#45;&gt;AuthService  -->
<g id="edge5" class="edge">
<title>AuthModule&#45;&gt;AuthService </title>
<path fill="none" stroke="black" stroke-dasharray="5,2" d="M443.59,-254C609.87,-254 1195,-254 1195,-254 1195,-254 1195,-197.03 1195,-197.03"/>
<polygon fill="black" stroke="black" points="1198.5,-197.03 1195,-187.03 1191.5,-197.03 1198.5,-197.03"/>
</g>
<!-- ConfigurationModule -->
<g id="node2" class="node">
<title>ConfigurationModule</title>
<polygon fill="#8dd3c7" stroke="black" points="444.09,-122 441.09,-126 420.09,-126 417.09,-122 305.91,-122 305.91,-86 444.09,-86 444.09,-122"/>
<text text-anchor="middle" x="375" y="-99.8" font-family="Times,serif" font-size="14.00">ConfigurationModule</text>
</g>
<!-- UsersModule -->
<g id="node3" class="node">
<title>UsersModule</title>
<polygon fill="#8dd3c7" stroke="black" points="420.92,-187 417.92,-191 396.92,-191 393.92,-187 329.08,-187 329.08,-151 420.92,-151 420.92,-187"/>
<text text-anchor="middle" x="375" y="-164.8" font-family="Times,serif" font-size="14.00">UsersModule</text>
</g>
<!-- ConfigurationModule&#45;&gt;UsersModule -->
<g id="edge10" class="edge">
<title>ConfigurationModule&#45;&gt;UsersModule</title>
<path fill="none" stroke="black" d="M375,-122.11C375,-122.11 375,-140.99 375,-140.99"/>
<polygon fill="black" stroke="black" points="371.5,-140.99 375,-150.99 378.5,-140.99 371.5,-140.99"/>
</g>
<!-- ConfigurationModule&#45;&gt;AppModule -->
<g id="edge2" class="edge">
<title>ConfigurationModule&#45;&gt;AppModule</title>
<path fill="none" stroke="black" d="M317.62,-122.28C317.62,-122.28 317.62,-281.76 317.62,-281.76"/>
<polygon fill="black" stroke="black" points="314.12,-281.76 317.62,-291.76 321.12,-281.76 314.12,-281.76"/>
</g>
<!-- ConfigurationService  -->
<g id="node8" class="node">
<title>ConfigurationService </title>
<polygon fill="#fb8072" stroke="black" points="836.02,-187 695.98,-187 695.98,-151 836.02,-151 836.02,-187"/>
<text text-anchor="middle" x="766" y="-164.8" font-family="Times,serif" font-size="14.00">ConfigurationService </text>
</g>
<!-- ConfigurationModule&#45;&gt;ConfigurationService  -->
<g id="edge8" class="edge">
<title>ConfigurationModule&#45;&gt;ConfigurationService </title>
<path fill="none" stroke="black" stroke-dasharray="5,2" d="M444.45,-104C556.81,-104 766,-104 766,-104 766,-104 766,-140.89 766,-140.89"/>
<polygon fill="black" stroke="black" points="762.5,-140.89 766,-150.89 769.5,-140.89 762.5,-140.89"/>
</g>
<!-- UsersModule&#45;&gt;AuthModule -->
<g id="edge4" class="edge">
<title>UsersModule&#45;&gt;AuthModule</title>
<path fill="none" stroke="black" d="M388.47,-187.01C388.47,-187.01 388.47,-216.85 388.47,-216.85"/>
<polygon fill="black" stroke="black" points="384.97,-216.85 388.47,-226.85 391.97,-216.85 384.97,-216.85"/>
</g>
<!-- UsersModule&#45;&gt;AppModule -->
<g id="edge3" class="edge">
<title>UsersModule&#45;&gt;AppModule</title>
<path fill="none" stroke="black" d="M347.25,-187.14C347.25,-187.14 347.25,-281.93 347.25,-281.93"/>
<polygon fill="black" stroke="black" points="343.75,-281.92 347.25,-291.93 350.75,-281.93 343.75,-281.92"/>
</g>
<!-- UsersService  -->
<g id="node10" class="node">
<title>UsersService </title>
<polygon fill="#fb8072" stroke="black" points="265.85,-263 172.15,-263 172.15,-227 265.85,-227 265.85,-263"/>
<text text-anchor="middle" x="219" y="-240.8" font-family="Times,serif" font-size="14.00">UsersService </text>
</g>
<!-- UsersModule&#45;&gt;UsersService  -->
<g id="edge11" class="edge">
<title>UsersModule&#45;&gt;UsersService </title>
<path fill="none" stroke="black" stroke-dasharray="5,2" d="M338.27,-187.01C338.27,-209.49 338.27,-245 338.27,-245 338.27,-245 275.8,-245 275.8,-245"/>
<polygon fill="black" stroke="black" points="275.8,-241.5 265.8,-245 275.8,-248.5 275.8,-241.5"/>
</g>
<!-- AuthService -->
<g id="node6" class="node">
<title>AuthService</title>
<ellipse fill="#fdb462" stroke="black" cx="1067" cy="-169" rx="59.11" ry="18"/>
<text text-anchor="middle" x="1067" y="-164.8" font-family="Times,serif" font-size="14.00">AuthService</text>
</g>
<!-- AuthService&#45;&gt;AuthModule -->
<g id="edge6" class="edge">
<title>AuthService&#45;&gt;AuthModule</title>
<path fill="none" stroke="black" d="M1067,-187.01C1067,-209.49 1067,-245 1067,-245 1067,-245 453.76,-245 453.76,-245"/>
<polygon fill="black" stroke="black" points="453.76,-241.5 443.76,-245 453.76,-248.5 453.76,-241.5"/>
</g>
<!-- JwtStrategy -->
<g id="node7" class="node">
<title>JwtStrategy</title>
<ellipse fill="#fdb462" stroke="black" cx="933" cy="-169" rx="56.76" ry="18"/>
<text text-anchor="middle" x="933" y="-164.8" font-family="Times,serif" font-size="14.00">JwtStrategy</text>
</g>
<!-- JwtStrategy&#45;&gt;AuthModule -->
<g id="edge7" class="edge">
<title>JwtStrategy&#45;&gt;AuthModule</title>
<path fill="none" stroke="black" d="M933,-187.31C933,-207.15 933,-236 933,-236 933,-236 453.62,-236 453.62,-236"/>
<polygon fill="black" stroke="black" points="453.62,-232.5 443.62,-236 453.62,-239.5 453.62,-232.5"/>
</g>
<!-- ConfigurationService -->
<g id="node9" class="node">
<title>ConfigurationService</title>
<ellipse fill="#fdb462" stroke="black" cx="578" cy="-169" rx="94.34" ry="18"/>
<text text-anchor="middle" x="578" y="-164.8" font-family="Times,serif" font-size="14.00">ConfigurationService</text>
</g>
<!-- ConfigurationService&#45;&gt;ConfigurationModule -->
<g id="edge9" class="edge">
<title>ConfigurationService&#45;&gt;ConfigurationModule</title>
<path fill="none" stroke="black" d="M483.63,-169C455.61,-169 432.24,-169 432.24,-169 432.24,-169 432.24,-132.11 432.24,-132.11"/>
<polygon fill="black" stroke="black" points="435.74,-132.11 432.24,-122.11 428.74,-132.11 435.74,-132.11"/>
</g>
<!-- UsersService -->
<g id="node11" class="node">
<title>UsersService</title>
<ellipse fill="#fdb462" stroke="black" cx="86" cy="-245" rx="61.95" ry="18"/>
<text text-anchor="middle" x="86" y="-240.8" font-family="Times,serif" font-size="14.00">UsersService</text>
</g>
<!-- UsersService&#45;&gt;UsersModule -->
<g id="edge12" class="edge">
<title>UsersService&#45;&gt;UsersModule</title>
<path fill="none" stroke="black" d="M86,-226.99C86,-204.51 86,-169 86,-169 86,-169 319.21,-169 319.21,-169"/>
<polygon fill="black" stroke="black" points="319.21,-172.5 329.21,-169 319.21,-165.5 319.21,-172.5"/>
</g>
</g>
</svg>
